HIERARCHY
ROOT Hips
{
  OFFSET 43.0842 91.1655 101.099
  CHANNELS 6 Xposition Yposition Zposition Zrotation Xrotation Yrotation
  JOINT LeftUpLeg
  {
    OFFSET 8.64259 1.95398 -2.38835
    CHANNELS 3 Zrotation Xrotation Yrotation
    JOINT LeftLeg
    {
      OFFSET 43.7702 0 0
      CHANNELS 3 Zrotation Xrotation Yrotation
      JOINT LeftFoot
      {
        OFFSET 40.6238 0 0
        CHANNELS 3 Zrotation Xrotation Yrotation
        JOINT LeftToeBase
        {
          OFFSET 12.7242 0 0
          CHANNELS 3 Zrotation Xrotation Yrotation
          End Site
          {
            OFFSET 0 0 0
          }
        }
      }
    }
  }
  JOINT RightUpLeg
  {
    OFFSET -8.2249 1.95398 -2.59336
    CHANNELS 3 Zrotation Xrotation Yrotation
    JOINT RightLeg
    {
      OFFSET 43.5653 0 0
      CHANNELS 3 Zrotation Xrotation Yrotation
      JOINT RightFoot
      {
        OFFSET 40.6238 0 0
        CHANNELS 3 Zrotation Xrotation Yrotation
        JOINT RightToeBase
        {
          OFFSET 12.7242 0 0
          CHANNELS 3 Zrotation Xrotation Yrotation
          End Site
          {
            OFFSET 0 0 0
          }
        }
      }
    }
  }
  JOINT Spine
  {
    OFFSET 0.165834 0.87714 6.61349
    CHANNELS 3 Zrotation Xrotation Yrotation
    JOINT Spine1
    {
      OFFSET 7.38963 1.71661e-005 0
      CHANNELS 3 Zrotation Xrotation Yrotation
      JOINT Spine2
      {
        OFFSET 11.9445 1.14441e-005 0
        CHANNELS 3 Zrotation Xrotation Yrotation
        JOINT Spine3
        {
          OFFSET 14.7254 4.19617e-005 0
          CHANNELS 3 Zrotation Xrotation Yrotation
          JOINT Spine4
          {
            OFFSET 10.9679 0 0
            CHANNELS 3 Zrotation Xrotation Yrotation
            JOINT RightShoulder
            {
              OFFSET 2.46616 -1.6653 3.69651
              CHANNELS 3 Zrotation Xrotation Yrotation
              JOINT RightArm
              {
                OFFSET 13.0012 0 0
                CHANNELS 3 Zrotation Xrotation Yrotation
                JOINT RightForeArm
                {
                  OFFSET 28.7848 1.52588e-005 0
                  CHANNELS 3 Zrotation Xrotation Yrotation
                  JOINT RightHand
                  {
                    OFFSET 26.5688 1.52588e-005 0
                    CHANNELS 3 Zrotation Xrotation Yrotation
                    End Site
                    {
                      OFFSET 0 0 0
                    }
                  }
                }
              }
            }
            JOINT LeftShoulder
            {
              OFFSET 2.38034 -1.29275 -3.7523
              CHANNELS 3 Zrotation Xrotation Yrotation
              JOINT LeftArm
              {
                OFFSET 16.3182 6.10351e-005 0
                CHANNELS 3 Zrotation Xrotation Yrotation
                JOINT LeftForeArm
                {
                  OFFSET 27.0901 0 0
                  CHANNELS 3 Zrotation Xrotation Yrotation
                  JOINT LeftHand
                  {
                    OFFSET 24.5451 1.52588e-005 0
                    CHANNELS 3 Zrotation Xrotation Yrotation
                    End Site
                    {
                      OFFSET 0 0 0
                    }
                  }
                }
              }
            }
            JOINT Neck
            {
              OFFSET 5.0226 -0.0266342 0
              CHANNELS 3 Zrotation Xrotation Yrotation
              JOINT Head
              {
                OFFSET 6.69364 2.86102e-005 0
                CHANNELS 3 Zrotation Xrotation Yrotation
                End Site
                {
                  OFFSET 0 0 0
                }
              }
            }
          }
        }
      }
    }
  }
}
MOTION
Frames:	6
Frame Time:	0.0333333
122.106 91.252 12.716 94.6788 -31.1308 92.2502 -172.325 12.531 97.3405 -35.7797 24.7181 -1.43125 63.9781 4.44641 16.5966 36.4705 8.19188 3.09152 169.848 13.1746 77.6552 -18.0742 4.74799 0.446594 59.2688 1.43745 -5.65848 27.8745 0.765053 -0.663944 0.162189 7.51274 -89.4333 11.8444 0.589175 1.06705 0.173207 0.635559 1.04009 -22.3587 0.24126 1.19478 -2.34606 0.241265 1.19477 91.7596 -52.5305 -97.6284 2.64093 29.9927 -26.817 -19.3713 10.6683 -61.9521 -12.2322 -2.14435 -0.0797054 -94.1995 -48.8291 72.1528 1.74493 26.5193 -57.3752 15.249 0.382813 -103.739 14.7956 1.43674 3.29576 -29.5014 -14.6612 -9.63107 5.22835 -17.6236 -18.4593 
122.124 91.2533 12.5976 94.3305 -31.565 91.6117 -171.991 12.5163 97.0128 -35.1143 24.2595 -2.00362 64.0049 4.45063 16.4364 36.4262 8.15801 3.04282 170.047 13.9505 77.3555 -18.2001 5.45312 0.286805 59.1554 1.39061 -5.10872 27.6668 0.79651 -0.431246 0.175917 7.48873 -89.3771 11.8917 0.643166 1.17314 0.220375 0.694174 1.14369 -22.3108 0.260893 1.31217 -2.29819 0.260899 1.31217 91.8855 -52.6488 -97.4179 2.12654 27.8311 -26.9333 -19.9534 12.118 -59.8697 -11.7272 -2.04468 -1.34242 -94.023 -48.4836 72.318 2.01895 25.9719 -58.1164 16.4623 0.921474 -102.517 16.2499 1.69349 3.21121 -28.9812 -14.8923 -9.72641 4.34096 -17.6798 -18.4766 
122.209 91.4871 12.3749 93.7946 -33.3212 90.9706 -171.399 11.9953 96.6574 -33.4771 20.1408 -2.78199 64.3526 4.7248 14.3542 36.769 8.78444 2.61545 170.179 15.2452 77.039 -17.9728 4.84182 0.379757 57.8606 2.19458 -4.37941 28.1786 0.0633666 0.749986 0.286781 7.41749 -89.3742 12.0332 0.865621 1.15395 0.362066 0.915592 1.11473 -22.1699 0.478816 1.36072 -2.15722 0.47883 1.36072 92.1988 -52.2323 -97.0269 -0.303219 22.8385 -24.3227 -19.1653 13.7442 -59.0099 -13.681 -2.52223 0.533038 -94.2784 -48.6144 71.9725 2.94045 23.488 -59.4339 13.5605 2.21745 -100.454 17.5747 1.90609 3.60743 -28.4812 -15.0821 -9.52489 4.22379 -17.7521 -18.1249 
122.435 91.8522 12.2312 93.2892 -36.3787 89.9785 -171.092 10.1671 95.8426 -30.4651 17.5589 -3.60851 64.2226 4.25027 14.0599 36.4983 8.36042 2.80054 169.898 17.5728 76.43 -18.7289 5.61311 0.781826 57.1148 1.82106 -0.445351 27.068 0.883216 0.237362 0.350733 7.30174 -89.4053 12.2647 0.979055 1.07722 0.59374 1.02551 1.03308 -21.9392 0.61006 1.32163 -1.92656 0.610074 1.32163 92.3197 -51.4403 -96.9906 -1.54907 17.4203 -21.4712 -18.7476 11.5346 -59.8812 -13.6556 -2.51779 0.264443 -94.3568 -48.6875 71.8764 3.82255 19.5528 -61.3195 11.9683 4.00464 -97.1188 18.7596 2.11003 3.75859 -27.8794 -14.8038 -7.32692 4.45367 -17.1891 -17.7341 
122.952 92.2835 12.1674 93.1404 -41.1004 89.2586 -171.092 7.33936 94.8352 -27.1286 13.3326 -4.36821 64.1676 3.19301 13.8982 36.4951 8.37013 2.7704 169.291 20.9289 75.9171 -20.9107 5.52526 1.48679 55.3494 2.19357 3.6307 27.319 0.504333 0.856789 0.327268 7.21194 -89.4427 12.4451 0.915326 1.008 0.774079 0.958811 0.966741 -21.7591 0.570091 1.23647 -1.74649 0.570099 1.23647 92.3563 -51.401 -96.9423 -1.52843 9.43831 -19.686 -19.4856 7.88436 -62.4529 -11.8763 -2.06589 -0.695118 -93.5319 -47.7445 72.8477 2.47516 12.616 -64.4846 9.17575 7.80745 -92.5632 18.5231 2.06093 3.98436 -26.5183 -13.9988 -4.42588 4.3982 -15.869 -16.0344 
123.586 92.5144 12.3647 93.5066 -47.1027 89.3229 -171.057 4.18397 94.082 -24.5586 9.10623 -5.01368 64.6068 2.3874 14.6093 35.8365 7.60311 2.6294 168.918 24.9323 76.2836 -24.7321 3.86364 2.30304 54.2091 2.63033 5.74234 28.3185 0.961772 -1.87084 0.234263 7.10687 -89.5607 12.6572 0.675047 0.798534 0.986183 0.709568 0.768037 -21.5476 0.403878 0.964489 -1.53497 0.403866 0.964481 91.9293 -52.0364 -97.4677 -0.000882138 0.773917 -17.9113 -19.2069 6.0156 -64.424 -10.7678 -1.80918 -1.54478 -92.3923 -46.4204 74.223 0.0105917 4.25857 -68.3203 6.62989 11.7507 -88.2864 22.5717 2.79086 5.03914 -24.7146 -12.5508 -0.217618 3.69682 -13.8355 -15.1748 
